#!OML:ASF F:\VICON\USERDATA\INSTALL\rory3\rory3.ASF
:FULLY-SPECIFIED
:DEGREES
582
root -2.66058 17.3983 -0.632466 3.97478 4.2156 5.72568
lowerback 12.7955 -1.78106 -9.34163
upperback 2.64551 -3.58392 0.048378
thorax -3.78441 -1.68477 5.86953
lowerneck -20.261 -0.350128 -9.64552
upperneck 32.9259 1.31201 5.0043
head 14.6938 0.0451347 3.99128
rclavicle 7.18234e-014 9.0944e-015
rhumerus -51.5151 5.17238 -83.8672
rradius 88.1301
rwrist -3.63286
rhand -28.6094 14.0075
rfingers 7.12502
rthumb -1.97447 -15.9631
lclavicle 7.18234e-014 9.0944e-015
lhumerus -19.0647 5.9756 71.2585
lradius 112.78
lwrist 19.6589
lhand -16.2802 11.9236
lfingers 7.12502
lthumb 9.92984 41.6694
rfemur -52.9931 -9.50351 12.1192
rtibia 96.0264
rfoot 7.3876 -5.33847
rtoes 3.55298
lfemur -14.2666 2.53379 -29.7535
ltibia 31.9605
lfoot -16.4625 -7.05011
ltoes -9.79853
583
root -2.66888 17.3763 -0.646102 4.13076 4.68878 5.244
lowerback 12.69 -2.01137 -9.04436
upperback 2.65121 -3.82393 0.337081
thorax -3.67991 -1.81191 6.03541
lowerneck -20.4945 -0.50846 -9.79511
upperneck 33.5929 1.12944 5.09413
head 15.0741 -0.0650909 4.05926
rclavicle 4.70374e-014 -5.1684e-015
rhumerus -52.3889 4.79641 -83.4885
rradius 89.0448
rwrist -3.82312
rhand -28.2896 13.6899
rfingers 7.12502
rthumb -1.66557 -16.2834
lclavicle 4.70374e-014 -5.1684e-015
lhumerus -18.7487 6.67175 71.1247
lradius 111.537
lwrist 18.9592
lhand -16.0371 13.0767
lfingers 7.12502
lthumb 10.1644 42.8111
rfemur -53.5628 -9.83465 12.6925
rtibia 96.463
rfoot 7.4356 -5.1036
rtoes 2.4577
lfemur -14.9178 2.53401 -29.2442
ltibia 32.6604
lfoot -16.8873 -7.10454
ltoes -9.81347
584
root -2.67851 17.3719 -0.661069 4.22198 4.84906 4.6771
lowerback 12.655 -2.10521 -8.67434
upperback 2.66073 -3.88307 0.609609
thorax -3.64669 -1.84667 6.12248
lowerneck -20.6757 -0.709468 -9.93549
upperneck 34.2113 0.858314 5.22127
head 15.4371 -0.204519 4.12345
rclavicle -2.89977e-014 -1.30204e-014
rhumerus -53.1741 4.32215 -83.1563
rradius 89.8267
rwrist -3.88118
rhand -28.2905 14.0573
rfingers 7.12502
rthumb -1.66649 -15.916
lclavicle -2.89977e-014 -1.30204e-014
lhumerus -18.8778 6.91875 71.0528
lradius 110.077
lwrist 18.779
lhand -16.3341 13.6392
lfingers 7.12502
lthumb 9.87785 43.3875
rfemur -53.9559 -9.7308 13.3968
rtibia 96.5743
rfoot 7.55123 -5.00406
rtoes 2.40659
lfemur -15.5403 2.62322 -28.619
ltibia 33.382
lfoot -17.2054 -7.17655
ltoes -10.179
585
root -2.69004 17.3816 -0.672895 4.2239 4.74626 4.0812
lowerback 12.697 -2.12116 -8.28722
upperback 2.62998 -3.8466 0.881949
thorax -3.71569 -1.82776 6.19335
lowerneck -20.4591 -0.731056 -9.98371
upperneck 34.5812 0.842646 5.15503
head 15.5686 -0.242774 4.11417
rclavicle 2.31087e-014 2.18663e-014
rhumerus -54.1084 3.88556 -82.8685
rradius 90.6471
rwrist -3.91249
rhand -28.131 14.3225
rfingers 7.12502
rthumb -1.51239 -15.6519
lclavicle 2.31087e-014 2.18663e-014
lhumerus -19.2838 6.94939 71.1562
lradius 108.477
lwrist 19.3357
lhand -17.4433 13.7107
lfingers 7.12502
lthumb 8.80755 43.5069
rfemur -54.0964 -9.26658 14.134
rtibia 96.402
rfoot 7.51253 -5.00305
rtoes 3.03235
lfemur -16.0081 2.5718 -27.8966
ltibia 33.9169
lfoot -17.1205 -7.32872
ltoes -10.3282
586
root -2.70112 17.402 -0.667719 4.02391 4.49994 4.13533
lowerback 12.7177 -2.03182 -8.49068
upperback 2.69754 -3.75269 0.919289
thorax -3.65407 -1.78511 6.33424
lowerneck -19.9847 -0.623799 -9.89964
upperneck 34.7612 0.994245 4.94034
head 15.5321 -0.20665 4.03292
rclavicle -1.14301e-014 -1.6201e-014
rhumerus -55.041 3.38539 -82.6988
rradius 91.4762
rwrist -3.92367
rhand -27.979 14.317
rfingers 7.12502
rthumb -1.36567 -15.6584
lclavicle -1.14301e-014 -1.6201e-014
lhumerus -19.6585 6.94911 71.3567
lradius 106.728
lwrist 19.7873
lhand -18.345 13.7557
lfingers 7.12502
lthumb 7.93736 43.5867
rfemur -53.7481 -8.8432 14.0576
rtibia 96.0456
rfoot 7.62781 -4.85416
rtoes 3.59238
lfemur -15.8711 2.47371 -27.8263
ltibia 34.1081
lfoot -17.0929 -7.49588
ltoes -11.4355
587
root -2.70797 17.4328 -0.656031 3.82564 4.22752 4.23573
lowerback 12.5571 -1.95773 -8.64513
upperback 2.84687 -3.65423 0.906269
thorax -3.41425 -1.75294 6.3787
lowerneck -19.5683 -0.513711 -9.73811
upperneck 34.9338 1.14721 4.67635
head 15.5072 -0.165999 3.91762
rclavicle -4.17696e-014 -8.44835e-015
rhumerus -55.7135 2.95104 -82.6588
rradius 92.154
rwrist -3.78861
rhand -28.0174 14.2889
rfingers 7.12502
rthumb -1.40277 -15.6862
lclavicle -4.17696e-014 -8.44835e-015
lhumerus -19.99 7.24107 71.5607
lradius 104.674
lwrist 19.6544
lhand -18.6114 13.7805
lfingers 7.12502
lthumb 7.68023 43.6211
rfemur -53.2344 -8.40373 13.9235
rtibia 95.4474
rfoot 7.72664 -4.85769
rtoes 3.60046
lfemur -15.4356 2.30983 -27.8034
ltibia 33.934
lfoot -16.7792 -7.58076
ltoes -9.01719
588
root -2.70656 17.4828 -0.649241 3.7374 3.95943 3.75892
lowerback 12.3377 -1.94436 -8.07126
upperback 2.95646 -3.53448 1.03236
thorax -3.22739 -1.71059 6.15527
lowerneck -19.1743 -0.460172 -9.61664
upperneck 35.0465 1.22411 4.43827
head 15.4667 -0.15629 3.80464
rclavicle -1.09332e-014 -9.74045e-015
rhumerus -56.2066 2.59571 -82.6813
rradius 92.7576
rwrist -3.59869
rhand -28.0026 14.3051
rfingers 7.12502
rthumb -1.38844 -15.6701
lclavicle -1.09332e-014 -9.74045e-015
lhumerus -20.475 7.48534 71.8194
lradius 102.713
lwrist 19.7349
lhand -18.5611 14.1284
lfingers 7.12502
lthumb 7.72875 43.9672
rfemur -52.7018 -7.86502 14.4949
rtibia 94.5487
rfoot 7.51694 -4.97306
rtoes 2.8328
lfemur -15.1193 1.97852 -27.2043
ltibia 33.4646
lfoot -15.9778 -7.4731
ltoes -10.2115
589
root -2.70051 17.5461 -0.641688 3.66745 3.5812 3.27735
lowerback 12.1209 -1.92883 -7.44473
upperback 3.04979 -3.41011 1.16895
thorax -3.06118 -1.66322 5.91364
lowerneck -18.8363 -0.402654 -9.65571
upperneck 35.2017 1.33207 4.31183
head 15.4549 -0.1408 3.77624
rclavicle -1.88845e-015 0
rhumerus -56.6509 2.42142 -82.7802
rradius 93.5017
rwrist -3.44562
rhand -28.4815 14.549
rfingers 7.12502
rthumb -1.85093 -15.4227
lclavicle -1.88845e-015 0
lhumerus -21.2312 7.42544 72.0405
lradius 100.853
lwrist 19.9667
lhand -18.8939 13.9336
lfingers 7.12502
lthumb 7.4076 43.7839
rfemur -52.0097 -7.25989 15.0749
rtibia 93.424
rfoot 7.12945 -5.0293
rtoes 2.53801
lfemur -14.7839 1.6294 -26.6525
ltibia 32.8657
lfoot -15.0872 -7.09851
ltoes -11.5636
590
root -2.69756 17.6131 -0.627137 3.52533 3.06909 3.1191
lowerback 11.8891 -1.86663 -7.23311
upperback 3.16522 -3.2783 1.25235
thorax -2.84048 -1.61256 5.84838
lowerneck -18.4565 -0.327403 -9.80128
upperneck 35.3783 1.47408 4.25338
head 15.4388 -0.116614 3.80148
rclavicle -5.17337e-014 -3.97569e-015
rhumerus -57.0503 2.44379 -82.9379
rradius 94.3507
rwrist -3.46393
rhand -29.5804 15.2191
rfingers 7.12502
rthumb -2.91221 -14.7408
lclavicle -5.17337e-014 -3.97569e-015
lhumerus -22.2047 7.40223 72.3306
lradius 99.0481
lwrist 19.8619
lhand -18.9118 13.8789
lfingers 7.12502
lthumb 7.39024 43.7299
rfemur -51.1115 -6.65438 15.307
rtibia 92.1662
rfoot 6.91304 -5.11399
rtoes 3.30948
lfemur -14.2404 1.30867 -26.4792
ltibia 32.2451
lfoot -14.1718 -6.44741
ltoes -13.4765
591
root -2.69462 17.6887 -0.6096 3.49709 2.55846 2.99322
lowerback 11.533 -1.84121 -7.08919
upperback 3.21526 -3.19721 1.36117
thorax -2.60695 -1.58523 5.8508
lowerneck -18.0409 -0.212781 -9.9424
upperneck 35.5965 1.68314 4.15334
head 15.4288 -0.0715663 3.82022
rclavicle -6.86801e-014 1.17283e-014
rhumerus -57.4527 2.70526 -83.1336
rradius 95.2688
rwrist -3.57798
rhand -30.1229 15.6272
rfingers 7.12502
rthumb -3.4361 -14.3248
lclavicle -6.86801e-014 1.17283e-014
lhumerus -23.4231 7.59771 72.72
lradius 97.3064
lwrist 19.5119
lhand -18.7469 13.8046
lfingers 7.12502
lthumb 7.54943 43.6499
rfemur -50.2528 -6.14754 15.574
rtibia 90.768
rfoot 7.02665 -5.29238
rtoes 3.58388
lfemur -13.8214 1.01748 -26.36
ltibia 31.6492
lfoot -13.1299 -5.8512
ltoes -15.735
